<svg width="198" height="313" viewBox="0 0 198 313" fill="none" xmlns="http://www.w3.org/2000/svg">
<path opacity="0.932" fill-rule="evenodd" clip-rule="evenodd" d="M93.0371 0H79.0371C69.5471 4.17656 64.2141 11.5099 63.0371 22C48.1961 19.4998 38.0291 25.1665 32.5371 39C32.3706 42.5 32.2038 46 32.0371 49.5C31.8703 53 31.7036 56.5 31.5371 60C29.3191 59.028 26.9861 58.3613 24.5371 58C10.3031 59.2353 2.30306 66.9019 0.537061 81C-0.426939 101.065 -0.0929391 121.065 1.53706 141C6.15706 146.318 10.8241 146.318 15.5371 141C15.7036 131.167 15.8703 121.333 16.0371 111.5C16.2038 101.667 16.3706 91.8335 16.5371 82C16.7036 81.3334 16.8703 80.6667 17.0371 80C17.2038 79.3333 17.3706 78.6666 17.5371 78C23.5001 72.5378 28.1661 73.5378 31.5371 81C31.7036 90.5 31.8703 100 32.0371 109.5C32.2038 119 32.3706 128.5 32.5371 138C36.9171 142.843 41.5831 143.177 46.5371 139C47.8491 106.727 48.5161 74.394 48.5371 42C53.5541 35.2839 58.2211 35.6173 62.5371 43C62.7036 56 62.8703 69 63.0371 82C63.2038 95 63.3706 108 63.5371 121C67.4511 126.642 72.1171 127.309 77.5371 123C78.8571 89.0851 79.5241 55.0851 79.5371 21C83.8171 13.6702 88.4841 13.3369 93.5371 20C93.7036 36.667 93.8703 53.334 94.0371 70.001C94.2038 86.6673 94.3706 103.334 94.5371 120C98.5831 127.005 103.583 127.672 109.537 122C109.563 94.9381 110.23 67.9381 111.537 41C118.041 35.3868 122.708 36.7201 125.537 45C126.037 81.6652 126.204 118.332 126.037 155C100.089 159.443 86.9231 174.776 86.5371 201C89.8111 206.238 94.3111 207.404 100.037 204.5C101.577 198.737 103.077 192.904 104.537 187C106.098 183.717 108.264 180.883 111.037 178.5C120.499 172.671 130.832 170.005 142.037 170.5C142.537 170.083 143.037 169.667 143.537 169.25C144.037 168.833 144.537 168.417 145.037 168L167.537 117L171.037 113.5C176.838 112.301 180.172 114.634 181.037 120.5C168.516 151.714 155.016 182.547 140.537 213C135.671 219.364 129.504 224.03 122.037 227C120.953 228.165 120.12 229.498 119.537 231C119.204 277 119.037 278.375 119.037 279.75C119.037 280.95 119.164 282.15 119.418 313H136.056C136.067 283.528 135.897 283.358 135.788 283.249C135.662 283.124 135.62 283.081 136.037 238C145.206 232.698 152.372 225.365 157.537 216C169.596 188.215 181.929 160.549 194.537 133C199.425 122.487 198.259 112.654 191.037 103.5C177.113 93.7081 164.613 95.2081 153.537 108C151.704 112.167 149.87 116.333 148.037 120.5C146.204 124.667 144.371 128.833 142.537 133C142.37 118.142 142.203 103.285 142.036 88.4275C141.87 73.6184 141.703 58.8092 141.537 44C141.191 40.9245 140.525 37.9245 139.537 35C132.975 23.3711 123.309 19.3711 110.537 23C109.302 11.6246 103.469 3.95791 93.0371 0Z" fill="black"/>
<path opacity="0.933" fill-rule="evenodd" clip-rule="evenodd" d="M42.9581 313H26.6582C26.4772 288 26.2702 263 26.0371 238C10.1491 228.568 1.64905 214.568 0.537054 196C-0.129946 188.333 -0.129946 180.667 0.537054 173C2.36605 167.342 6.20005 165.508 12.0371 167.5C13.4681 167.965 14.6341 168.799 15.5371 170C15.7036 174.334 15.8703 178.667 16.0371 183C16.2038 187.333 16.3706 191.667 16.5371 196C17.3981 205.89 21.5651 214.056 29.0371 220.5C33.7901 222.958 38.2901 225.792 42.5371 229C42.7379 257 42.8782 285 42.9581 313Z" fill="black"/>
</svg>
