<svg width="191" height="311" viewBox="0 0 191 311" fill="none" xmlns="http://www.w3.org/2000/svg">
<path opacity="0.936" fill-rule="evenodd" clip-rule="evenodd" d="M153.41 310.958C150.262 310.958 147.116 310.958 143.969 310.958C142.392 309.176 141.015 307.209 139.839 305.058C139.052 267.688 139.052 230.32 139.839 192.951C140.161 190.792 141.145 189.022 142.789 187.64C157.497 181.984 166.741 171.559 170.521 156.368C171.308 125.294 171.308 94.2175 170.521 63.1426C169.538 60.5854 167.767 58.8153 165.21 57.8323C142.789 57.0452 120.367 57.0452 97.9461 57.8323C90.0789 63.3397 90.0789 68.8459 97.9461 74.3533C114.074 74.7463 130.201 75.1404 146.329 75.5334C149.553 76.0031 151.716 77.7732 152.82 80.8437C153.607 92.6445 153.607 104.445 152.82 116.246C151.837 117.426 150.852 118.606 149.869 119.786C129.921 125.046 119.497 138.027 118.597 158.729C114.561 163.747 109.644 164.732 103.846 161.679C101.069 159.162 99.8891 156.014 100.306 152.238C102.003 129.918 113.017 114.381 133.348 105.625C134.513 101.769 134.906 97.8344 134.528 93.8245C121.149 94.0216 107.774 93.8245 94.4059 93.2345C90.0854 92.2562 86.1517 90.4861 82.6051 87.9242C70.4111 95.7917 58.2169 95.7917 46.0229 87.9242C37.8204 93.5354 28.9699 95.1084 19.4712 92.6444C18.6845 114.673 18.6845 136.7 19.4712 158.729C23.5182 173.396 32.762 183.032 47.2029 187.64C47.9414 188.525 48.5315 189.51 48.973 190.591C49.7598 229.14 49.7598 267.688 48.973 306.238C48.1591 308.421 46.7824 309.995 44.8428 310.958C41.6959 310.958 38.5491 310.958 35.4022 310.958C32.8055 308.879 31.4287 306.124 31.2719 302.698C30.8786 268.868 30.4852 235.04 30.0919 201.211C14.3956 192.016 4.36497 178.641 0 161.089C0 120.573 0 80.0566 0 39.5412C7.99292 24.14 20.5804 18.2397 37.7623 21.8401C42.4107 6.12266 53.0313 -0.761888 69.6243 1.18877C74.2496 2.324 78.5766 4.09411 82.6051 6.4991C95.3264 -1.67762 107.717 -1.28348 119.777 7.67918C134.793 -2.75857 148.561 -1.18553 161.08 12.3995C164.876 20.5998 167.039 29.2533 167.57 38.3611C177.071 40.5832 183.955 46.0906 188.222 54.8821C190.159 89.4252 190.554 124.04 189.402 158.729C186.044 177.644 174.244 191.805 157.54 201.211C156.557 236.213 157.737 271.223 157.54 306.238C156.726 308.421 155.35 309.995 153.41 310.958ZM61.3638 19.4799C66.5424 18.8226 70.2794 20.7898 72.5745 25.3803C73.3613 39.9341 73.3613 54.4891 72.5745 69.043C67.0675 76.9105 61.5605 76.9105 56.0535 69.043C55.2667 54.4891 55.2667 39.9341 56.0535 25.3803C57.2631 22.7995 59.0332 20.8323 61.3638 19.4799ZM97.9461 19.4799C101.914 18.9725 105.257 20.1526 107.977 23.0201C109.59 27.9764 110.18 33.0897 109.747 38.3611C104.161 38.0342 98.6543 38.4283 93.2258 39.5412C91.8586 35.2669 91.6618 30.9396 92.6358 26.5603C93.342 23.3104 95.1121 20.9503 97.9461 19.4799ZM135.708 19.4799C139.868 19.2982 143.213 20.8712 145.739 24.2002C147.233 28.7966 147.823 33.5169 147.509 38.3611C141.216 38.3611 134.921 38.3611 128.628 38.3611C126.87 30.2811 129.23 23.9878 135.708 19.4799ZM24.7815 39.5412C30.1653 39.3771 33.9022 41.7373 35.9922 46.6216C36.779 53.702 36.779 60.7825 35.9922 67.8629C33.9925 73.8801 29.8622 76.0432 23.6015 74.3533C22.2247 72.9762 20.848 71.6002 19.4712 70.2231C18.6845 61.5696 18.6845 52.9149 19.4712 44.2614C21.1195 42.4087 22.8896 40.8345 24.7815 39.5412Z" fill="black"/>
</svg>
