<?xml version="1.0" encoding="UTF-8"?>
<!DOCTYPE svg PUBLIC "-//W3C//DTD SVG 1.1//EN" "http://www.w3.org/Graphics/SVG/1.1/DTD/svg11.dtd">
<svg xmlns="http://www.w3.org/2000/svg" version="1.1" width="512px" height="512px" style="shape-rendering:geometricPrecision; text-rendering:geometricPrecision; image-rendering:optimizeQuality; fill-rule:evenodd; clip-rule:evenodd" xmlns:xlink="http://www.w3.org/1999/xlink">
<g><path style="opacity:0.932" fill="#000000" d="M 250.5,-0.5 C 255.167,-0.5 259.833,-0.5 264.5,-0.5C 274.932,3.45791 280.765,11.1246 282,22.5C 294.772,18.8711 304.438,22.8711 311,34.5C 311.988,37.4245 312.654,40.4245 313,43.5C 313.333,73.1667 313.667,102.833 314,132.5C 317.667,124.167 321.333,115.833 325,107.5C 336.076,94.7081 348.576,93.2081 362.5,103C 369.722,112.154 370.888,121.987 366,132.5C 353.392,160.049 341.059,187.715 329,215.5C 323.835,224.865 316.669,232.198 307.5,237.5C 306.667,327.498 306.167,417.498 306,507.5C 305.31,509.35 304.144,510.684 302.5,511.5C 299.833,511.5 297.167,511.5 294.5,511.5C 293.164,509.99 291.997,508.323 291,506.5C 290.333,414.5 290.333,322.5 291,230.5C 291.583,228.998 292.416,227.665 293.5,226.5C 300.967,223.53 307.134,218.864 312,212.5C 326.479,182.047 339.979,151.214 352.5,120C 351.635,114.134 348.301,111.801 342.5,113C 341.333,114.167 340.167,115.333 339,116.5C 331.5,133.5 324,150.5 316.5,167.5C 315.5,168.333 314.5,169.167 313.5,170C 302.295,169.505 291.962,172.171 282.5,178C 279.727,180.383 277.561,183.217 276,186.5C 274.54,192.404 273.04,198.237 271.5,204C 265.774,206.904 261.274,205.738 258,200.5C 258.386,174.276 271.552,158.943 297.5,154.5C 297.667,117.832 297.5,81.1652 297,44.5C 294.171,36.2201 289.504,34.8868 283,40.5C 281.693,67.4381 281.026,94.4381 281,121.5C 275.046,127.172 270.046,126.505 266,119.5C 265.667,86.1667 265.333,52.8333 265,19.5C 259.947,12.8369 255.28,13.1702 251,20.5C 250.987,54.5851 250.32,88.5851 249,122.5C 243.58,126.809 238.914,126.142 235,120.5C 234.667,94.5 234.333,68.5 234,42.5C 229.684,35.1173 225.017,34.7839 220,41.5C 219.979,73.894 219.312,106.227 218,138.5C 213.046,142.677 208.38,142.343 204,137.5C 203.667,118.5 203.333,99.5 203,80.5C 199.629,73.0378 194.963,72.0378 189,77.5C 188.667,78.8333 188.333,80.1667 188,81.5C 187.667,101.167 187.333,120.833 187,140.5C 182.287,145.818 177.62,145.818 173,140.5C 171.37,120.565 171.036,100.565 172,80.5C 173.766,66.4019 181.766,58.7353 196,57.5C 198.449,57.8613 200.782,58.528 203,59.5C 203.333,52.5 203.667,45.5 204,38.5C 209.492,24.6665 219.659,18.9998 234.5,21.5C 235.677,11.0099 241.01,3.67656 250.5,-0.5 Z"/></g>
<g><path style="opacity:0.935" fill="#000000" d="M 511.5,158.5 C 511.5,163.167 511.5,167.833 511.5,172.5C 504.546,194.964 497.879,217.63 491.5,240.5C 500.129,243.295 505.962,248.962 509,257.5C 510.972,286.493 510.972,315.493 509,344.5C 505.619,359.538 497.286,370.871 484,378.5C 483.923,391.556 483.256,404.556 482,417.5C 477.333,422.833 472.667,422.833 468,417.5C 467.333,401.5 467.333,385.5 468,369.5C 468.374,368.584 468.874,367.75 469.5,367C 481.487,362.889 489.321,354.722 493,342.5C 494.09,328.197 494.59,313.864 494.5,299.5C 494.629,286.447 494.129,273.447 493,260.5C 491.786,258.951 490.286,257.785 488.5,257C 469.833,256.333 451.167,256.333 432.5,257C 424.984,261.199 424.651,265.866 431.5,271C 445.167,271.333 458.833,271.667 472.5,272C 475.232,272.398 477.065,273.898 478,276.5C 478.952,287.265 478.619,297.932 477,308.5C 468.254,310.877 460.921,315.544 455,322.5C 451.625,329.711 449.125,337.211 447.5,345C 439.836,348.501 435.169,346.168 433.5,338C 434.787,318.924 444.12,305.424 461.5,297.5C 462.487,294.232 462.82,290.898 462.5,287.5C 451.162,287.667 439.828,287.5 428.5,287C 425.121,285.893 421.954,284.393 419,282.5C 408.514,289.141 398.014,289.141 387.5,282.5C 380.586,287.255 373.086,288.588 365,286.5C 364.05,305.885 364.384,325.219 366,344.5C 370.141,355.308 377.641,362.808 388.5,367C 389.893,368.171 390.727,369.671 391,371.5C 391.667,416.5 391.667,461.5 391,506.5C 390.003,508.323 388.836,509.99 387.5,511.5C 384.833,511.5 382.167,511.5 379.5,511.5C 377.856,510.684 376.69,509.35 376,507.5C 375.833,464.496 375.333,421.496 374.5,378.5C 362.05,371.551 353.884,361.217 350,347.5C 348.86,329.383 348.36,311.216 348.5,293C 348.353,275.104 348.853,257.27 350,239.5C 356.871,227.653 367.037,223.319 380.5,226.5C 384.131,214.89 392.131,208.89 404.5,208.5C 402.4,196.167 400.234,183.834 398,171.5C 394.951,156.085 400.785,145.918 415.5,141C 430.75,139.268 440.25,145.768 444,160.5C 446.774,174.813 449.441,189.147 452,203.5C 457.385,187.342 462.385,171.009 467,154.5C 475.012,142.385 485.846,138.885 499.5,144C 505.22,147.541 509.22,152.374 511.5,158.5 Z M 418.5,156.5 C 423.074,156.236 426.241,158.236 428,162.5C 432.644,188.217 437.477,213.884 442.5,239.5C 437.171,240.319 431.838,240.986 426.5,241.5C 426.666,236.156 426.499,230.823 426,225.5C 425.275,223.051 424.275,220.717 423,218.5C 419.575,200.71 416.409,182.876 413.5,165C 413.308,161.035 414.975,158.201 418.5,156.5 Z M 485.5,157.5 C 491.574,156.919 494.908,159.586 495.5,165.5C 489.205,190.549 482.205,215.382 474.5,240C 469.511,240.499 464.511,240.666 459.5,240.5C 466.225,215.823 473.058,191.156 480,166.5C 480.837,162.843 482.67,159.843 485.5,157.5 Z M 400.5,224.5 C 404.888,223.943 408.055,225.61 410,229.5C 410.667,242.167 410.667,254.833 410,267.5C 404.919,272.986 400.252,272.653 396,266.5C 395.333,254.5 395.333,242.5 396,230.5C 396.599,227.746 398.099,225.746 400.5,224.5 Z M 369.5,241.5 C 373.888,240.943 377.055,242.61 379,246.5C 379.667,253.167 379.667,259.833 379,266.5C 374.748,272.653 370.081,272.986 365,267.5C 364.333,260.5 364.333,253.5 365,246.5C 366.025,244.313 367.525,242.646 369.5,241.5 Z"/></g>
<g><path style="opacity:0.933" fill="#000000" d="M 210.5,511.5 C 207.833,511.5 205.167,511.5 202.5,511.5C 200.73,509.887 199.564,507.887 199,505.5C 198.833,416.165 198.333,326.831 197.5,237.5C 181.612,228.068 173.112,214.068 172,195.5C 171.333,187.833 171.333,180.167 172,172.5C 173.829,166.842 177.663,165.008 183.5,167C 184.931,167.465 186.097,168.299 187,169.5C 187.333,178.167 187.667,186.833 188,195.5C 188.861,205.39 193.028,213.556 200.5,220C 205.253,222.458 209.753,225.292 214,228.5C 214.667,321.5 214.667,414.5 214,507.5C 213.31,509.35 212.144,510.684 210.5,511.5 Z"/></g>
<g><path style="opacity:0.936" fill="#000000" d="M 129.5,511.5 C 126.833,511.5 124.167,511.5 121.5,511.5C 120.164,509.99 118.997,508.323 118,506.5C 117.333,474.833 117.333,443.167 118,411.5C 118.273,409.671 119.107,408.171 120.5,407C 132.964,402.207 140.797,393.373 144,380.5C 144.667,354.167 144.667,327.833 144,301.5C 143.167,299.333 141.667,297.833 139.5,297C 120.5,296.333 101.5,296.333 82.5,297C 75.8333,301.667 75.8333,306.333 82.5,311C 96.1667,311.333 109.833,311.667 123.5,312C 126.232,312.398 128.065,313.898 129,316.5C 129.667,326.5 129.667,336.5 129,346.5C 128.167,347.5 127.333,348.5 126.5,349.5C 109.596,353.957 100.762,364.957 100,382.5C 96.5796,386.753 92.4129,387.587 87.5,385C 85.1465,382.867 84.1465,380.2 84.5,377C 85.9382,358.086 95.2715,344.92 112.5,337.5C 113.487,334.232 113.82,330.898 113.5,327.5C 102.162,327.667 90.8284,327.5 79.5,327C 75.8388,326.171 72.5054,324.671 69.5,322.5C 59.1667,329.167 48.8333,329.167 38.5,322.5C 31.5492,327.255 24.0492,328.588 16,326.5C 15.3333,345.167 15.3333,363.833 16,382.5C 19.4294,394.929 27.2627,403.095 39.5,407C 40.1258,407.75 40.6258,408.584 41,409.5C 41.6667,442.167 41.6667,474.833 41,507.5C 40.3103,509.35 39.1436,510.684 37.5,511.5C 34.8333,511.5 32.1667,511.5 29.5,511.5C 27.2995,509.738 26.1328,507.404 26,504.5C 25.6667,475.833 25.3333,447.167 25,418.5C 11.6989,410.708 3.1989,399.374 -0.5,384.5C -0.5,350.167 -0.5,315.833 -0.5,281.5C 6.27324,268.449 16.9399,263.449 31.5,266.5C 35.439,253.181 44.439,247.347 58.5,249C 62.4195,249.962 66.0862,251.462 69.5,253.5C 80.2801,246.571 90.7801,246.905 101,254.5C 113.724,245.655 125.391,246.988 136,258.5C 139.217,265.449 141.05,272.782 141.5,280.5C 149.551,282.383 155.384,287.05 159,294.5C 160.642,323.772 160.976,353.105 160,382.5C 157.155,398.529 148.655,410.529 134.5,418.5C 133.667,448.161 133.167,477.828 133,507.5C 132.31,509.35 131.144,510.684 129.5,511.5 Z M 51.5,264.5 C 55.8884,263.943 59.0551,265.61 61,269.5C 61.6667,281.833 61.6667,294.167 61,306.5C 56.3333,313.167 51.6667,313.167 47,306.5C 46.3333,294.167 46.3333,281.833 47,269.5C 48.025,267.313 49.525,265.646 51.5,264.5 Z M 82.5,264.5 C 85.8621,264.07 88.6954,265.07 91,267.5C 92.3674,271.7 92.8674,276.033 92.5,280.5C 87.7668,280.223 83.1001,280.557 78.5,281.5C 77.3414,277.878 77.1747,274.211 78,270.5C 78.5985,267.746 80.0985,265.746 82.5,264.5 Z M 114.5,264.5 C 118.025,264.346 120.859,265.679 123,268.5C 124.266,272.395 124.766,276.395 124.5,280.5C 119.167,280.5 113.833,280.5 108.5,280.5C 107.01,273.653 109.01,268.32 114.5,264.5 Z M 20.5,281.5 C 25.0622,281.361 28.2289,283.361 30,287.5C 30.6667,293.5 30.6667,299.5 30,305.5C 28.3054,310.599 24.8054,312.432 19.5,311C 18.3333,309.833 17.1667,308.667 16,307.5C 15.3333,300.167 15.3333,292.833 16,285.5C 17.3968,283.93 18.8968,282.596 20.5,281.5 Z"/></g>
<g><path style="opacity:0.923" fill="#000000" d="M 479.5,511.5 C 476.833,511.5 474.167,511.5 471.5,511.5C 470.312,510.636 469.145,509.636 468,508.5C 467.333,488.167 467.333,467.833 468,447.5C 475.017,441.369 480.017,442.703 483,451.5C 483.667,469.167 483.667,486.833 483,504.5C 482.867,507.404 481.7,509.738 479.5,511.5 Z"/></g>
</svg>
