<svg width="192" height="327" viewBox="0 0 164 327" fill="none" xmlns="http://www.w3.org/2000/svg">
<path opacity="0.935" fill-rule="evenodd" clip-rule="evenodd" d="M163.025 17.7733C163.025 22.4403 163.025 27.1063 163.025 31.7733C156.071 54.2373 149.404 76.9033 143.025 99.7733C151.654 102.568 157.487 108.235 160.525 116.773C162.497 145.766 162.497 174.766 160.525 203.773C157.144 218.811 148.811 230.144 135.525 237.773C135.448 250.829 135.525 327 135.525 327H119.525C119.525 327 118.858 244.773 119.525 228.773C119.899 227.857 120.399 227.023 121.025 226.273C133.012 222.162 140.846 213.995 144.525 201.773C145.615 187.47 146.115 173.137 146.025 158.773C146.154 145.72 145.654 132.72 144.525 119.773C143.311 118.224 141.811 117.058 140.025 116.273C121.358 115.606 102.692 115.606 84.025 116.273C76.509 120.472 76.176 125.139 83.025 130.273C96.692 130.606 110.358 130.94 124.025 131.273C126.757 131.671 128.59 133.171 129.525 135.773C130.477 146.538 130.144 157.205 128.525 167.773C119.779 170.15 112.446 174.817 106.525 181.773C103.15 188.984 100.65 196.484 99.025 204.273C91.361 207.774 86.694 205.441 85.025 197.273C86.312 178.197 95.645 164.697 113.025 156.773C114.012 153.505 114.345 150.171 114.025 146.773C102.687 146.94 91.353 146.773 80.025 146.273C76.646 145.166 73.479 143.666 70.525 141.773C60.039 148.414 49.539 148.414 39.025 141.773C32.111 146.528 24.611 147.861 16.525 145.773C15.575 165.158 15.909 184.492 17.525 203.773C21.666 214.581 29.166 222.081 40.025 226.273C41.418 227.444 42.252 228.944 42.525 230.773C43.192 275.773 42.1671 282 41.5001 327H35.0001C35.0001 327 33.1671 327 30.5001 327H26.025C25.858 283.996 26.858 280.769 26.025 237.773C13.575 230.824 5.40905 220.49 1.52505 206.773C0.385049 188.656 -0.114951 170.489 0.0250491 152.273C-0.121951 134.377 0.378049 116.543 1.52505 98.7733C8.39605 86.9263 18.562 82.5923 32.025 85.7733C35.656 74.1633 43.656 68.1633 56.025 67.7733C53.925 55.4403 51.759 43.1073 49.525 30.7733C46.476 15.3583 52.31 5.19131 67.025 0.273308C82.275 -1.45869 91.775 5.04131 95.525 19.7733C98.299 34.0863 100.966 48.4203 103.525 62.7733C108.91 46.6153 113.91 30.2823 118.525 13.7733C126.537 1.65831 137.371 -1.84169 151.025 3.27331C156.745 6.81431 160.745 11.6473 163.025 17.7733ZM70.025 15.7733C74.599 15.5093 77.766 17.5093 79.525 21.7733C84.169 47.4903 89.002 73.1573 94.025 98.7733C88.696 99.5923 83.363 100.259 78.025 100.773C78.191 95.4293 78.024 90.0963 77.525 84.7733C76.8 82.3243 75.8 79.9903 74.525 77.7733C71.1 59.9833 67.934 42.1493 65.025 24.2733C64.833 20.3083 66.5 17.4743 70.025 15.7733ZM137.025 16.7733C143.099 16.1923 146.433 18.8593 147.025 24.7733C140.73 49.8223 133.73 74.6553 126.025 99.2733C121.036 99.7723 116.036 99.9393 111.025 99.7733C117.75 75.0963 124.583 50.4293 131.525 25.7733C132.362 22.1163 134.195 19.1163 137.025 16.7733ZM52.025 83.7733C56.413 83.2163 59.58 84.8833 61.525 88.7733C62.192 101.44 62.192 114.106 61.525 126.773C56.444 132.259 51.777 131.926 47.525 125.773C46.858 113.773 46.858 101.773 47.525 89.7733C48.124 87.0193 49.624 85.0193 52.025 83.7733ZM21.025 100.773C25.413 100.216 28.58 101.883 30.525 105.773C31.192 112.44 31.192 119.106 30.525 125.773C26.273 131.926 21.606 132.259 16.525 126.773C15.858 119.773 15.858 112.773 16.525 105.773C17.55 103.586 19.05 101.919 21.025 100.773Z" fill="black"/>
</svg>
